# xmcd
#
# Track frame offsets: 
#        150
#        19720
#        45513
#        71565
#        110455
#        139545
#        157825
#        176579
#        203107
#        232362
#        253182
#
# Disc length: 3708 seconds
#
# Revision: 16
# Processed by: cddbd v1.5.2PL0 Copyright (c) Steve Scherf et al.
# Submitted via: ExactAudioCopy v1.3
#
DISCID=930e7a0b
DTITLE=Joe Bonamassa - Blues Of Desperation
DYEAR=2016
DGENRE=Blues
TTITLE0=This Train
TTITLE1=Mountain Climbing
TTITLE2=Drive
TTITLE3=No Good Place For The Lonely
TTITLE4=Blues Of Desperation
TTITLE5=The Valley Runs Low
TTITLE6=You Left Me Nothin' But The Bill And The Blues
TTITLE7=Distant Lonesome Train
TTITLE8=How Deep This River Runs
TTITLE9=Livin' Easy
TTITLE10=What I've Known For A Very Long Time
EXTD=Location:  - UPC: 819873012726 - Catalogue number: PRD 7481 5 - Labe
EXTD=l: Provogue Records - ASIN: B0111840 - Limited Deluxe Silver Editio
EXTD=n YEAR: 2016
EXTT0=
EXTT1=
EXTT2=
EXTT3=
EXTT4=
EXTT5=
EXTT6=
EXTT7=
EXTT8=
EXTT9=
EXTT10=
PLAYORDER=
